<svg width="126" height="70" viewBox="0 0 126 70" fill="none" xmlns="http://www.w3.org/2000/svg">

<path d="M79.167 21.8637C78.4488 22.2842 77.7391 22.7207 77.0054 23.1125C76.8498 23.1957 76.565 23.189 76.4101 23.1008C73.322 21.3434 70.242 19.5717 67.1713 17.7842C67.0244 17.6987 66.9044 17.4439 66.898 17.2634C66.8699 16.47 66.8881 15.6749 66.9383 14.8244C68.4731 13.4003 69.8394 11.9263 71.1629 10.2472C71.2474 10.2143 71.5466 10.1864 71.6984 10.0227C72.2653 9.41205 72.7805 8.75404 73.3224 8.11996C73.5007 7.91139 73.6933 7.71345 73.8932 7.52522C74.1453 7.28781 74.4116 7.06532 74.6717 6.83639C74.8927 6.6302 75.1795 6.4879 75.378 6.26686C75.9844 5.59172 76.5101 4.83838 77.1589 4.20945C77.5915 3.79003 77.8155 3.049 78.6171 3.08372C78.6729 3.08614 78.7355 3.00524 78.7898 2.95728C79.0316 2.74367 79.2716 2.52795 79.5122 2.31299C81.3958 3.38742 83.2794 4.46173 85.1627 5.53675C85.227 5.57348 85.2821 5.63354 85.3503 5.65529C86.4183 5.9958 86.5934 6.75207 86.5544 7.78613C86.4708 10.0052 86.5267 12.2295 86.48 14.4958C86.0339 14.2743 85.7896 14.3268 85.7647 14.6982C85.7152 15.4361 85.422 15.9557 84.6382 16.1292C84.5038 16.159 84.3949 16.361 84.3007 16.5011C84.1215 16.768 83.9966 17.0795 83.7836 17.3131C83.5631 17.5549 83.2259 17.6922 83.0099 17.9368C82.7216 18.2633 82.5105 18.6458 82.0318 18.762C81.9309 18.7865 81.8889 19.0279 81.8073 19.1618C81.7051 19.3299 81.5883 19.6322 81.4808 19.6309C80.7784 19.6221 80.6883 20.1562 80.4912 20.6206C80.437 20.7482 80.318 20.9093 80.1996 20.9386C79.6808 21.0671 79.3148 21.337 79.167 21.8637Z" fill="#A4ABBD"/>
<path d="M79.4931 2.28417C79.2715 2.52757 79.0316 2.7433 78.7898 2.95691C78.7355 3.00486 78.6729 3.08576 78.6171 3.08335C77.8155 3.04863 77.5915 3.78966 77.1589 4.20908C76.5101 4.838 75.9844 5.59134 75.378 6.26648C75.1795 6.48752 74.8927 6.62982 74.6717 6.83602C74.4116 7.06495 74.1453 7.28743 73.8932 7.52485C73.6933 7.71307 73.5007 7.91102 73.3224 8.11958C72.7805 8.75366 72.2653 9.41168 71.6984 10.0224C71.5466 10.186 71.2474 10.2139 71.1629 10.2468C69.8394 11.9259 68.473 13.3999 66.9478 14.7727C66.9008 12.7046 66.8778 10.6317 66.8975 8.55917C66.9017 8.11232 66.7643 7.85751 66.3759 7.65292C65.7046 7.29931 65.043 6.92258 64.4059 6.51142C64.0452 6.27861 63.7746 6.29083 63.4033 6.50671C60.0855 8.43573 56.7569 10.3463 53.4274 12.255C48.844 14.8826 44.26 17.5089 39.6667 20.1191C39.2627 20.3487 39.1109 20.5958 39.113 21.0684C39.1333 25.5297 39.1247 29.9911 39.1245 34.4524C39.1245 34.6523 39.1245 34.8522 39.1245 35.0833C38.3436 35.0833 37.6127 35.0833 36.8213 35.0833C36.8213 34.8611 36.8213 34.6626 36.8213 34.464C36.821 29.9656 36.8163 25.4673 36.8282 20.9689C36.8292 20.5925 36.7559 20.3204 36.3894 20.1281C36.4169 19.349 37.1605 19.1352 37.4302 18.581C37.3716 18.4279 37.3087 18.2638 37.2459 18.0998C37.8045 18.5389 38.2802 18.3297 38.8315 18.0049C41.578 16.3872 44.3469 14.8072 47.1125 13.2217C52.5623 10.0973 58.0174 6.98207 63.4611 3.84711C63.8064 3.64825 64.0491 3.66423 64.3671 3.86354C65.2201 4.39807 66.1273 4.8541 66.942 5.4394C67.5276 5.86008 67.9885 5.73652 68.5227 5.42504C71.1249 3.90791 73.7367 2.40704 76.3343 0.882315C76.6374 0.704402 76.8527 0.719082 77.1354 0.895781C77.7165 1.25898 78.3185 1.58887 78.9074 1.98194C78.9161 2.08753 78.9294 2.14363 78.9426 2.19974C79.0175 2.17086 79.0924 2.14198 79.1673 2.1131C79.2695 2.16064 79.3718 2.20819 79.4931 2.28417Z" fill="#A4ABBD"/>
<path d="M103.038 45.5573C103.038 45.0397 103.038 44.5773 103.038 44.0259C102.905 44.1508 102.814 44.218 102.745 44.303C101.919 45.3277 101.098 46.3564 100.273 47.3811C99.8802 47.8678 99.3215 47.8679 98.9295 47.3798C98.0595 46.2966 97.1943 45.2096 96.2108 43.9785C96.2108 46.1876 96.2108 48.2348 96.2108 50.3086C95.3294 50.3086 94.5397 50.3086 93.7156 50.3086C93.7156 46.2417 93.7156 42.1976 93.7156 38.1523C94.2133 38.01 94.5493 38.1156 94.8743 38.5416C96.3241 40.4426 97.8138 42.3133 99.2903 44.1939C99.3806 44.309 99.4813 44.4159 99.6166 44.5722C100.49 43.4619 101.345 42.3775 102.198 41.2916C102.907 40.3878 103.634 39.496 104.315 38.5712C104.618 38.16 104.943 37.9769 105.47 38.1573C105.47 42.1894 105.47 46.2331 105.47 50.3065C104.671 50.3065 103.898 50.3065 103.038 50.3065C103.038 48.7433 103.038 47.1779 103.038 45.5573Z" fill="#A4ABBD"/>
<path d="M37.2235 18.0695C37.3087 18.2638 37.3716 18.4278 37.4302 18.5809C37.1605 19.1351 36.4169 19.349 36.3649 20.0949C36.331 20.1222 36.2806 20.1148 36.2584 20.057C36.0766 19.9299 35.9169 19.8606 35.7573 19.7913C33.6474 18.5918 31.5363 17.3945 29.4282 16.1919C28.3654 15.5856 27.3018 14.98 26.2517 14.3522C25.8846 14.1328 25.6331 14.0891 25.2366 14.3877C23.7457 15.5103 21.7292 15.3935 20.2493 14.1724C18.8946 13.0547 18.4476 11.0643 19.1968 9.48661C20.0034 7.78785 21.7831 6.85286 23.5903 7.17844C25.7477 7.56713 27.2044 9.5496 26.8892 11.7192C26.8311 12.119 27.0354 12.2327 27.3034 12.3854C30.6045 14.2669 33.9025 16.1537 37.2235 18.0695Z" fill="#A4ABBD"/>
<path d="M87.3778 47.5991C87.255 47.433 87.1562 47.2987 87.0574 47.1644C86.1652 45.9517 86.1535 45.9469 84.5135 46.1552C84.5135 47.5222 84.5135 48.8991 84.5135 50.3056C83.6774 50.3056 82.905 50.3056 82.0847 50.3056C82.0847 46.3386 82.0847 42.3712 82.0847 38.3763C82.1323 38.3615 82.1999 38.3222 82.2673 38.3223C83.8649 38.3257 85.4643 38.2873 87.0595 38.3513C89.3675 38.4438 90.994 40.2462 90.8662 42.4804C90.7953 43.7191 90.2588 44.5507 88.7902 45.6552C89.8895 47.1782 90.9904 48.7032 92.1642 50.3293C91.2145 50.3293 90.357 50.342 89.5008 50.3148C89.3799 50.3109 89.2453 50.1269 89.1511 50.001C88.5626 49.215 87.9839 48.4218 87.3778 47.5991ZM87.3162 43.7793C88.1451 43.3548 88.4526 42.7537 88.3119 41.8326C88.202 41.1126 87.6723 40.5886 86.8151 40.5104C86.0689 40.4423 85.3115 40.4962 84.5455 40.4962C84.5455 41.6433 84.5455 42.7559 84.5455 43.9535C85.469 43.903 86.3494 43.8549 87.3162 43.7793Z" fill="#A4ABBD"/>
<path d="M58.7526 38.3154C58.9686 38.3258 59.13 38.3361 59.3473 38.3501C59.3473 39.8717 59.3473 41.3614 59.3473 42.878C61.1429 42.878 62.8797 42.878 64.6744 42.878C64.6744 41.3687 64.6744 39.8794 64.6744 38.3536C65.5172 38.3536 66.3027 38.3536 67.1203 38.3536C67.1203 42.3425 67.1203 46.3101 67.1203 50.3068C66.3191 50.3068 65.5452 50.3068 64.6961 50.3068C64.6961 48.603 64.6961 46.8953 64.6961 45.1619C62.8858 45.1619 61.1502 45.1619 59.3542 45.1619C59.3542 46.8844 59.3542 48.577 59.3542 50.3026C58.5071 50.3026 57.7203 50.3026 56.9036 50.3026C56.9036 46.3123 56.9036 42.3438 56.9036 38.3154C57.5197 38.3154 58.1088 38.3154 58.7526 38.3154Z" fill="#A4ABBD"/>
<path d="M19.7719 45.1427C20.7145 43.0057 21.6427 40.9085 22.5571 38.8054C22.6753 38.5333 22.8136 38.4095 23.1303 38.4111C23.4551 38.4129 23.6199 38.5112 23.7525 38.8155C25.4141 42.6307 27.0908 46.4395 28.7618 50.2507C28.8117 50.3645 28.8408 50.4874 28.8992 50.6659C28.0764 50.6659 27.3012 50.6808 26.5277 50.6513C26.3981 50.6464 26.192 50.4675 26.1633 50.3379C25.9237 49.2532 25.2629 48.968 24.1992 49.0803C23.1701 49.189 22.1203 49.1158 21.08 49.097C20.774 49.0915 20.5769 49.1653 20.5133 49.4754C20.3008 50.5128 19.6626 50.8567 18.6427 50.6781C18.2505 50.6094 17.8361 50.6669 17.3445 50.6669C18.1672 48.7929 18.9602 46.9868 19.7719 45.1427ZM23.0269 47.0876C23.5776 47.0876 24.1283 47.0876 24.758 47.0876C24.215 45.7154 23.701 44.4164 23.1416 43.0026C22.582 44.4208 22.0673 45.7252 21.5296 47.0875C22.0645 47.0875 22.4906 47.0875 23.0269 47.0876Z" fill="#A4ABBD"/>
<path d="M76.9841 42.6168C78.1143 45.1865 79.2245 47.719 80.3714 50.335C79.4929 50.335 78.7182 50.3538 77.9462 50.3175C77.8087 50.3111 77.5972 50.0945 77.5641 49.9436C77.3407 48.925 76.7161 48.6651 75.726 48.7535C74.6761 48.8472 73.6111 48.7861 72.5531 48.7678C72.2311 48.7622 72.0012 48.8316 71.9364 49.1661C71.7373 50.1935 71.1007 50.5049 70.112 50.3473C69.7017 50.2819 69.2722 50.3365 68.7786 50.3365C69.3797 48.9686 69.9501 47.6695 70.5214 46.3709C71.6601 43.7825 72.8009 41.195 73.9359 38.6051C74.0654 38.3095 74.1675 38.0794 74.59 38.0752C75.0257 38.071 75.1103 38.3292 75.235 38.6155C75.8106 39.9372 76.3877 41.2582 76.9841 42.6168ZM74.5411 46.7608C75.067 46.7608 75.593 46.7608 76.1963 46.7608C75.6442 45.3747 75.1311 44.0864 74.5708 42.6797C74.0098 44.1048 73.5051 45.3868 72.9643 46.7608C73.5177 46.7608 73.9741 46.7608 74.5411 46.7608Z" fill="#A4ABBD"/>
<path d="M109.87 44.147C110.718 42.2304 111.553 40.3545 112.367 38.4691C112.49 38.1852 112.634 38.0775 112.942 38.087C113.23 38.0958 113.403 38.1464 113.533 38.447C115.186 42.2469 116.858 46.0391 118.522 49.8339C118.58 49.9658 118.619 50.1058 118.7 50.334C117.854 50.334 117.067 50.3495 116.282 50.3176C116.162 50.3127 115.979 50.1049 115.947 49.9634C115.711 48.9293 115.083 48.6483 114.058 48.7514C113.01 48.857 111.942 48.7872 110.883 48.7674C110.571 48.7616 110.37 48.8563 110.312 49.1531C110.104 50.2133 109.44 50.5106 108.436 50.3472C108.042 50.2832 107.63 50.3367 107.149 50.3367C108.069 48.2412 108.96 46.2129 109.87 44.147ZM111.608 46.0496C111.527 46.2655 111.447 46.4813 111.352 46.7348C112.45 46.7348 113.459 46.7348 114.552 46.7348C114.019 45.3917 113.507 44.1007 112.945 42.685C112.467 43.883 112.052 44.9251 111.608 46.0496Z" fill="#A4ABBD"/>
<path d="M46.0243 38.6803C46.0983 38.5237 46.1746 38.3305 46.2453 38.3325C48.1885 38.3882 50.1538 38.3068 52.0671 38.5819C53.8222 38.8343 54.8963 40.442 54.8842 42.2106C54.872 43.9728 53.7617 45.4908 52.034 45.8491C50.993 46.065 49.8988 46.0254 48.8285 46.1008C48.7389 46.1071 48.6494 46.1142 48.4995 46.1255C48.4995 47.5218 48.4995 48.8989 48.4995 50.305C47.6501 50.305 46.8632 50.305 46.0239 50.305C46.0239 46.4273 46.0239 42.581 46.0243 38.6803ZM49.6762 43.927C50.0845 43.9182 50.4951 43.9337 50.9006 43.8956C51.7583 43.8149 52.327 43.1865 52.3824 42.2967C52.4347 41.4562 51.9441 40.6936 51.1288 40.5745C50.278 40.4502 49.4058 40.4713 48.5311 40.4282C48.5311 41.6518 48.5311 42.7697 48.5311 43.9271C48.9022 43.9271 49.234 43.9271 49.6762 43.927Z" fill="#A4ABBD"/>
<path d="M79.2039 21.8558C79.3147 21.3369 79.6808 21.067 80.1996 20.9385C80.3179 20.9092 80.437 20.7481 80.4912 20.6205C80.6883 20.1561 80.7784 19.622 81.4808 19.6308C81.5882 19.6321 81.705 19.3298 81.8073 19.1618C81.8888 19.0278 81.9309 18.7864 82.0318 18.7619C82.5105 18.6457 82.7216 18.2632 83.0099 17.9367C83.2259 17.6921 83.563 17.5548 83.7836 17.313C83.9966 17.0794 84.1214 16.7679 84.3007 16.501C84.3948 16.3609 84.5037 16.1589 84.6382 16.1291C85.422 15.9556 85.7152 15.436 85.7647 14.6981C85.7896 14.3267 86.0339 14.2742 86.4724 14.5472C86.517 14.98 86.5762 15.4126 86.5178 15.8289C86.4313 16.4452 86.7035 16.7465 87.2236 17.0206C88.3548 17.6167 89.4571 18.2693 90.5511 18.9317C90.7333 19.042 90.9254 19.3177 90.9262 19.5177C90.946 24.4785 90.9408 29.4393 90.9385 34.4002C90.9384 34.4718 90.9191 34.5435 90.9031 34.6553C90.1645 34.6553 89.4363 34.6553 88.6478 34.6553C88.6478 34.4235 88.6478 34.2063 88.6478 33.9891C88.6475 29.6576 88.6411 25.3261 88.6569 20.9947C88.6584 20.5898 88.5417 20.3631 88.1831 20.1708C87.2848 19.689 86.4019 19.1769 85.5302 18.6485C85.2529 18.4804 85.0533 18.4946 84.7818 18.653C82.9404 19.7276 81.0889 20.785 79.2039 21.8558Z" fill="#A4ABBD"/>
<path d="M35.1205 48.7788C34.8594 49.3763 34.5935 49.9267 34.3731 50.4947C34.2538 50.8021 34.0831 50.8949 33.7581 50.9007C33.4309 50.9067 33.3132 50.7603 33.1982 50.498C31.6537 46.9775 30.1002 43.461 28.5495 39.9433C28.3717 39.54 28.1977 39.1351 27.9849 38.6457C28.8976 38.6457 29.7419 38.6243 30.583 38.6668C30.7222 38.6739 30.8953 38.9404 30.9711 39.1211C31.8152 41.1316 32.6428 43.1491 33.4764 45.164C33.5595 45.3649 33.6538 45.5612 33.7804 45.8433C33.884 45.6366 33.9615 45.5038 34.0195 45.363C34.8784 43.2785 35.7411 41.1954 36.5854 39.1051C36.721 38.7692 36.8825 38.6125 37.2734 38.6326C37.9938 38.6695 38.7174 38.6431 39.569 38.6431C38.0672 42.0621 36.6009 45.4006 35.1205 48.7788Z" fill="#A4ABBD"/>
<path d="M8.91286 44.5557C8.91284 42.5767 8.91284 40.6532 8.91284 38.6865C9.72888 38.6865 10.5153 38.6865 11.3556 38.6865C11.3556 41.91 11.3556 45.1407 11.3556 48.4241C13.1257 48.4241 14.844 48.4241 16.6068 48.4241C16.6068 49.1837 16.6068 49.8914 16.6068 50.6331C14.0697 50.6331 11.5321 50.6331 8.91288 50.6331C8.91288 48.6294 8.91288 46.6203 8.91286 44.5557Z" fill="#A4ABBD"/>
<path d="M78.1701 56.7728C78.7881 55.9583 79.3848 55.1761 79.9815 54.3939C80.0298 54.4194 80.0781 54.4449 80.1264 54.4704C80.1264 56.0642 80.1264 57.6579 80.1264 59.294C79.9202 59.294 79.6928 59.294 79.4219 59.294C79.4219 58.3726 79.4219 57.4527 79.4219 56.5328C79.3825 56.5116 79.3432 56.4905 79.3038 56.4693C78.9658 56.91 78.612 57.3398 78.2945 57.7947C78.0175 58.1917 77.7919 58.2279 77.5006 57.8085C77.1843 57.3531 76.8314 56.923 76.4082 56.3688C76.4082 57.4167 76.4082 58.3402 76.4082 59.2991C76.114 59.2991 75.8859 59.2991 75.6284 59.2991C75.6284 57.6864 75.6284 56.0871 75.6284 54.4877C75.679 54.4526 75.7296 54.4174 75.7802 54.3823C76.5239 55.242 77.1508 56.2015 77.8833 57.1044C77.9813 56.9939 78.0651 56.8995 78.1701 56.7728Z" fill="#A4ABBD"/>
<path d="M20.9124 55.4594C20.0003 54.999 19.1432 55.1341 18.6083 55.7945C18.0989 56.4234 18.1135 57.4905 18.6401 58.1134C19.1439 58.7093 20.1236 58.9044 20.8282 58.5266C21.1955 58.3297 21.5416 58.093 21.3599 57.5135C20.9251 57.5135 20.4706 57.5135 19.9844 57.5135C19.9844 57.2547 19.9844 57.0593 19.9844 56.8254C20.696 56.8254 21.4098 56.8254 22.1225 56.8254C22.3706 57.9779 22.1679 58.5336 21.3151 59.0506C20.3672 59.6253 19.1249 59.5484 18.2974 58.8319C17.5119 58.1518 17.2251 57.2853 17.503 56.281C17.7812 55.2753 18.484 54.6795 19.5 54.4955C20.4715 54.3196 21.282 54.6349 21.9447 55.4427C21.7552 55.6072 21.5946 55.7467 21.4171 55.9009C21.2458 55.7477 21.0972 55.6148 20.9124 55.4594Z" fill="#A4ABBD"/>
<path d="M41.3221 59.0603C40.2254 58.2576 39.8583 57.2018 40.261 56.0851C40.6196 55.0908 41.6536 54.4115 42.7414 54.4556C43.8556 54.5008 44.8216 55.253 45.0867 56.3351C45.334 57.3445 45.0466 58.215 44.2254 58.8579C43.3336 59.556 42.3599 59.6013 41.3221 59.0603ZM42.2662 55.2171C42.1436 55.2568 42.015 55.2839 41.8994 55.3383C41.1636 55.6845 40.7751 56.5139 40.9601 57.3298C41.1508 58.1713 41.7681 58.6797 42.6126 58.6908C43.466 58.702 44.0871 58.2241 44.3076 57.3867C44.6377 56.1322 43.7525 55.1403 42.2662 55.2171Z" fill="#A4ABBD"/>
<path d="M46.0906 54.713C46.9629 54.6823 47.8886 54.5141 48.6779 54.7675C49.8165 55.1329 49.7569 56.5553 48.6057 57.3973C49.0501 58.0127 49.496 58.6301 49.9629 59.2765C49.391 59.4378 49.0075 59.3223 48.7249 58.8245C48.5166 58.4575 48.2517 58.114 47.9649 57.8032C47.8236 57.6501 47.5854 57.5522 47.3739 57.5042C46.9854 57.416 46.8515 57.6203 46.8749 58.001C46.9008 58.4221 46.8808 58.846 46.8808 59.3026C46.6085 59.3026 46.3783 59.3026 46.083 59.3026C46.083 57.7833 46.083 56.2736 46.0906 54.713ZM46.9361 56.7522C47.2688 56.7629 47.6017 56.7871 47.934 56.7809C48.4093 56.7719 48.658 56.4738 48.6774 56.0413C48.697 55.6043 48.4556 55.2878 47.9957 55.2411C47.635 55.2044 47.2675 55.2337 46.8752 55.2337C46.8752 55.7528 46.8752 56.2116 46.9361 56.7522Z" fill="#A4ABBD"/>
<path d="M12.4839 58.6694C12.6341 58.8809 12.7629 59.0588 12.8978 59.2451C12.1759 59.426 12.1454 59.4161 11.7427 58.8743C11.5327 58.5918 11.2948 58.3251 11.1208 58.022C10.8383 57.5296 10.4503 57.372 9.84836 57.5572C9.84836 58.1135 9.84836 58.693 9.84836 59.3038C9.56632 59.3038 9.35142 59.3038 9.09155 59.3038C9.09155 57.7499 9.09155 56.1893 9.09155 54.5831C9.81761 54.5831 10.5593 54.5162 11.2821 54.6036C11.8912 54.6773 12.3118 55.0994 12.4237 55.7405C12.5514 56.4721 12.2324 56.9928 11.5474 57.3821C11.862 57.8131 12.1622 58.2245 12.4839 58.6694ZM10.9187 55.2284C10.5606 55.2284 10.2024 55.2284 9.85188 55.2284C9.85188 55.7881 9.85188 56.2596 9.85188 56.7905C10.1683 56.7905 10.4575 56.7896 10.7467 56.7907C11.1729 56.7924 11.5235 56.6682 11.6088 56.1978C11.6966 55.7139 11.5156 55.3723 10.9187 55.2284Z" fill="#A4ABBD"/>
<path d="M73.0255 57.9946C72.7596 57.4695 72.35 57.4191 71.805 57.5532C71.805 58.1125 71.805 58.6918 71.805 59.3027C71.5204 59.3027 71.3066 59.3027 71.0498 59.3027C71.0498 57.7467 71.0498 56.1866 71.0498 54.5874C71.7757 54.5874 72.5164 54.5217 73.2389 54.6081C73.8235 54.678 74.243 55.0897 74.3568 55.7007C74.4955 56.4456 74.186 56.9955 73.493 57.3748C73.9478 58.0107 74.391 58.6304 74.8518 59.2746C74.3129 59.4197 73.9374 59.345 73.6716 58.879C73.4989 58.576 73.259 58.3111 73.0255 57.9946ZM71.89 55.2405C71.8439 55.7372 71.7977 56.2339 71.7466 56.7831C72.1844 56.7831 72.5153 56.7974 72.8445 56.7797C73.3076 56.7548 73.5672 56.4817 73.5791 56.0333C73.591 55.5837 73.3343 55.2966 72.8849 55.2395C72.5922 55.2023 72.2914 55.2283 71.89 55.2405Z" fill="#A4ABBD"/>
<path d="M99.4223 56.4572C99.1642 56.8134 98.9218 57.1272 98.6533 57.4749C99.0418 58.0137 99.4812 58.6231 99.9446 59.2656C99.3847 59.4445 99.0147 59.3254 98.7443 58.8512C98.5807 58.5642 98.3278 58.3277 98.1647 58.0406C97.8864 57.5506 97.5017 57.3808 96.894 57.5634C96.894 58.1173 96.894 58.6969 96.894 59.3055C96.6096 59.3055 96.3953 59.3055 96.1409 59.3055C96.1409 57.7446 96.1409 56.1854 96.1409 54.5869C96.8695 54.5869 97.6132 54.5065 98.3312 54.6078C99.1823 54.7279 99.5354 55.3965 99.4223 56.4572ZM96.88 56.2685C96.8916 56.4284 96.9033 56.5882 96.9203 56.822C97.4945 56.6787 98.1524 57.058 98.5295 56.4285C98.6584 56.2132 98.6527 55.7738 98.5128 55.5702C98.1155 54.9917 97.4819 55.2824 96.8799 55.227C96.8799 55.5775 96.8799 55.8692 96.88 56.2685Z" fill="#A4ABBD"/>
<path d="M62.78 56.4475C63.2574 56.4476 63.6797 56.4476 64.15 56.4476C64.15 55.8038 64.15 55.219 64.15 54.591C64.4256 54.591 64.6539 54.591 64.9217 54.591C64.9217 56.1476 64.9217 57.7088 64.9217 59.303C64.6799 59.303 64.4494 59.303 64.1596 59.303C64.1596 58.5902 64.1596 57.8949 64.1596 57.166C63.3493 57.166 62.5972 57.166 61.7867 57.166C61.7867 57.8642 61.7867 58.5565 61.7867 59.292C61.5029 59.292 61.2761 59.292 61.0164 59.292C61.0164 57.7303 61.0164 56.1691 61.0164 54.5771C61.2499 54.5771 61.465 54.5771 61.7408 54.5771C61.7408 55.1747 61.7408 55.7754 61.7408 56.4475C62.1075 56.4475 62.4163 56.4475 62.78 56.4475Z" fill="#A4ABBD"/>
<path d="M26.3693 54.5726C26.6135 54.5522 26.8131 54.5522 27.0247 54.5522C27.0247 55.6681 27.1002 56.7426 27.0033 57.8015C26.9076 58.8473 26.0743 59.4544 25.0224 59.4279C24.0065 59.4023 23.206 58.759 23.1303 57.7492C23.052 56.7052 23.1129 55.6509 23.1129 54.573C23.3623 54.573 23.5781 54.573 23.8708 54.573C23.8708 55.3975 23.8646 56.2236 23.8743 57.0494C23.8776 57.3245 23.8874 57.6078 23.9545 57.8722C24.1017 58.4524 24.5245 58.7191 25.1723 58.6883C25.757 58.6605 26.1826 58.3354 26.2227 57.7463C26.284 56.8434 26.26 55.9349 26.2771 55.0288C26.2799 54.8833 26.3082 54.7382 26.3693 54.5726Z" fill="#A4ABBD"/>
<path d="M93.7741 59.3352C93.1452 59.3352 92.5718 59.3352 91.9629 59.3352C91.9629 57.7366 91.9629 56.1752 91.9629 54.5801C92.9931 54.5801 94.0054 54.5801 95.0822 54.5801C95.0917 54.759 95.102 54.9506 95.1162 55.2164C94.3204 55.2164 93.5531 55.2164 92.7573 55.2164C92.7573 55.6495 92.7573 56.0117 92.7573 56.4389C93.3303 56.4389 93.8954 56.4389 94.4962 56.4389C94.5099 56.6772 94.52 56.8536 94.5342 57.101C93.936 57.101 93.3728 57.101 92.7689 57.101C92.7689 57.6386 92.7689 58.1082 92.7689 58.6416C93.5585 58.6416 94.3471 58.6416 95.1698 58.6416C95.1698 58.8945 95.1698 59.0845 95.1698 59.3352C94.7106 59.3352 94.2701 59.3352 93.7741 59.3352Z" fill="#A4ABBD"/>
<path d="M14.0802 59.3352C13.9036 59.2277 13.6725 59.1219 13.6707 59.0123C13.6466 57.5524 13.6546 56.092 13.6546 54.5889C14.7189 54.5889 15.7448 54.5889 16.8024 54.5889C16.8024 54.7846 16.8024 54.9765 16.8024 55.221C16.0327 55.221 15.2786 55.221 14.4874 55.221C14.4874 55.6326 14.4874 55.9938 14.4874 56.4207C15.038 56.4207 15.6022 56.4207 16.2087 56.4207C16.2087 56.6742 16.2087 56.8638 16.2087 57.1193C15.6374 57.1193 15.0716 57.1193 14.4826 57.1193C14.4826 57.6552 14.4826 58.1258 14.4826 58.64C15.2904 58.64 16.0654 58.64 16.901 58.64C16.9119 58.8721 16.9209 59.0637 16.9337 59.3353C15.9761 59.3353 15.0542 59.3353 14.0802 59.3352Z" fill="#A4ABBD"/>
<path d="M110.594 55.5675C109.943 55.085 109.281 55.0518 108.627 55.4164C107.977 55.7789 107.745 56.3835 107.799 57.1087C107.85 57.8002 108.187 58.309 108.831 58.5615C109.48 58.8158 110.109 58.7484 110.646 58.2606C110.754 58.1624 110.83 58.0293 110.945 57.8823C111.178 58.0425 111.35 58.1613 111.512 58.2724C111.201 59.1706 109.769 59.576 108.977 59.379C107.813 59.0894 106.996 58.1747 106.952 57.0361C106.909 55.9209 107.662 54.8762 108.734 54.5624C109.842 54.2382 110.944 54.6243 111.529 55.5794C111.364 55.7019 111.193 55.8276 110.926 56.025C110.818 55.8703 110.723 55.7328 110.594 55.5675Z" fill="#A4ABBD"/>
<path d="M68.3333 58.5477C68.0399 58.5477 67.7964 58.5701 67.5587 58.5428C67.1036 58.4906 66.8113 58.5971 66.6285 59.0827C66.5599 59.2649 66.1477 59.3187 65.8922 59.4311C65.8454 59.3763 65.7985 59.3215 65.7517 59.2668C66.454 57.6527 67.1563 56.0386 67.8585 54.4245C67.9323 54.4168 68.006 54.4091 68.0797 54.4014C68.7848 56.0147 69.4899 57.628 70.2115 59.2792C69.6942 59.3957 69.3177 59.4065 69.1751 58.8383C69.0614 58.3852 68.6682 58.5958 68.3333 58.5477ZM68.3847 56.9168C68.2607 56.6154 68.1368 56.314 67.9705 55.9097C67.6845 56.613 67.441 57.2117 67.1808 57.8516C67.7372 57.8516 68.2046 57.8516 68.7412 57.8516C68.6231 57.533 68.5232 57.2637 68.3847 56.9168Z" fill="#A4ABBD"/>
<path d="M32.8887 56.2104C33.118 55.6795 33.3267 55.1854 33.5553 54.7005C33.6018 54.602 33.7232 54.5386 33.8101 54.459C33.8797 54.5368 33.9751 54.6034 34.015 54.6942C34.6839 56.2147 35.3459 57.7382 36.019 59.2831C35.5026 59.4098 35.1173 59.3993 34.962 58.8099C34.9317 58.695 34.7015 58.5742 34.5533 58.5597C34.1853 58.5238 33.8095 58.5721 33.4405 58.5418C32.958 58.5022 32.6034 58.5583 32.4165 59.1135C32.3598 59.2819 31.9164 59.3211 31.65 59.4194C31.6182 59.3729 31.5863 59.3264 31.5544 59.2798C31.9947 58.27 32.4349 57.2602 32.8887 56.2104ZM33.4384 57.8828C33.7996 57.8828 34.1608 57.8828 34.587 57.8828C34.3154 57.2132 34.0769 56.6251 33.7841 55.9033C33.4869 56.6332 33.243 57.2321 32.9859 57.8636C33.1567 57.8728 33.2488 57.8777 33.4384 57.8828Z" fill="#A4ABBD"/>
<path d="M85.0003 58.2936C85.1368 58.6413 85.2557 58.9501 85.3865 59.29C84.9086 59.4005 84.5507 59.3857 84.3841 58.8356C84.3451 58.7066 84.0988 58.579 83.9354 58.5607C83.5686 58.5197 83.1931 58.5647 82.8229 58.5434C82.3703 58.5173 82.0215 58.5526 81.8388 59.0911C81.779 59.2675 81.3286 59.3123 81.0569 59.4172C81.0283 59.3661 80.9997 59.3149 80.9712 59.2637C81.6762 57.6499 82.3813 56.0362 83.0864 54.4224C83.1604 54.4139 83.2345 54.4054 83.3086 54.397C83.8666 55.6829 84.4247 56.9688 85.0003 58.2936ZM83.5293 56.7124C83.4366 56.4856 83.3439 56.2587 83.1974 55.8999C82.8985 56.6353 82.6561 57.2319 82.4032 57.8543C82.9707 57.8543 83.4457 57.8543 83.9801 57.8543C83.8293 57.4703 83.6958 57.1304 83.5293 56.7124Z" fill="#A4ABBD"/>
<path d="M117.523 57.0103C116.606 56.4507 116.352 55.8119 116.749 55.1361C117.225 54.326 118.579 54.2162 119.344 54.9306C119.45 55.03 119.532 55.1551 119.652 55.3007C119.481 55.4391 119.327 55.5636 119.257 55.6202C118.794 55.4551 118.417 55.2588 118.021 55.2066C117.839 55.1827 117.479 55.4184 117.452 55.5781C117.419 55.7812 117.584 56.1047 117.766 56.237C118.105 56.4839 118.525 56.6156 118.898 56.8216C119.55 57.1829 119.826 57.6797 119.72 58.2519C119.609 58.8589 119.159 59.2469 118.446 59.4007C117.73 59.5551 116.539 59.0839 116.361 58.3399C116.503 58.2326 116.659 58.1149 116.837 57.9808C117.229 58.4468 117.66 58.8239 118.278 58.669C118.506 58.612 118.807 58.3965 118.854 58.2011C118.9 58.0066 118.725 57.6751 118.545 57.5318C118.262 57.3072 117.893 57.1903 117.523 57.0103Z" fill="#A4ABBD"/>
<path d="M90.0914 57.8437C89.8718 57.6497 89.6774 57.4789 89.4578 57.3509C89.2191 57.2116 88.9513 57.1227 88.7062 56.9932C87.9104 56.5726 87.6241 56.0001 87.8693 55.3434C88.1087 54.7023 88.9069 54.3178 89.6713 54.4906C90.154 54.5998 90.5741 54.8122 90.8308 55.3222C90.6777 55.4491 90.5271 55.5738 90.4878 55.6064C89.9915 55.4406 89.6114 55.2526 89.2154 55.2092C89.0374 55.1897 88.7105 55.4291 88.6648 55.6058C88.619 55.7831 88.784 56.1046 88.9548 56.2279C89.2797 56.4627 89.6797 56.5916 90.0393 56.7819C90.7927 57.1806 91.0667 57.6789 90.9079 58.3294C90.7489 58.9807 90.1959 59.4044 89.413 59.4209C88.6151 59.4378 87.9815 59.1143 87.5283 58.3936C87.6892 58.2594 87.8405 58.1332 88.0387 57.968C88.4838 58.5341 89.0375 58.911 89.752 58.5981C89.9385 58.5165 89.9912 58.1315 90.0914 57.8437Z" fill="#A4ABBD"/>
<path d="M113.958 59.3351C113.46 59.3351 113.018 59.3351 112.537 59.3351C112.537 57.7375 112.537 56.1782 112.537 54.5825C113.552 54.5825 114.562 54.5825 115.608 54.5825C115.608 54.7817 115.608 54.9725 115.608 55.22C114.846 55.22 114.094 55.22 113.309 55.22C113.309 55.637 113.309 55.9993 113.309 56.4253C113.861 56.4253 114.426 56.4253 115.03 56.4253C115.03 56.6768 115.03 56.8662 115.03 57.1025C114.473 57.1025 113.923 57.1025 113.324 57.1025C113.324 57.6288 113.324 58.1114 113.324 58.6385C114.106 58.6385 114.879 58.6385 115.711 58.6385C115.724 58.8706 115.734 59.0628 115.748 59.3351C115.151 59.3351 114.582 59.3351 113.958 59.3351Z" fill="#A4ABBD"/>
<path d="M59.9406 55.3065C60.3735 56.503 59.8099 57.3791 58.5772 57.4774C58.2489 57.5036 57.9166 57.4814 57.512 57.4814C57.512 57.8381 57.512 58.1286 57.512 58.419C57.512 58.6946 57.512 58.9702 57.512 59.2907C57.2525 59.2907 57.0266 59.2907 56.7666 59.2907C56.7666 57.7277 56.7666 56.1668 56.7666 54.5713C57.4903 54.5713 58.2025 54.4937 58.8848 54.6023C59.2552 54.6612 59.5749 55.037 59.9406 55.3065ZM59.1768 56.4621C59.1559 56.1377 59.2563 55.7179 59.09 55.5077C58.6901 55.0025 58.081 55.2807 57.5548 55.2265C57.5548 55.7838 57.5548 56.2691 57.5548 56.908C58.1254 56.7711 58.6235 56.6516 59.1768 56.4621Z" fill="#A4ABBD"/>
<path d="M102.249 57.6744C102.65 56.8454 103.047 56.03 103.348 55.1806C103.548 54.6154 103.851 54.4167 104.481 54.6081C103.774 56.2276 103.068 57.8444 102.362 59.4612C102.289 59.4618 102.217 59.4623 102.144 59.4629C101.441 57.856 100.737 56.2491 100.031 54.6362C100.81 54.4443 100.833 54.4567 101.119 55.1307C101.48 55.979 101.843 56.826 102.249 57.6744Z" fill="#A4ABBD"/>
<path d="M52.5034 57.9156C52.5034 58.4061 52.5034 58.8447 52.5034 59.309C52.2289 59.309 52.0142 59.309 51.6661 59.309C52.2001 57.4001 50.8453 56.1093 50.1023 54.6024C50.6508 54.4487 51.01 54.5467 51.2425 55.085C51.4596 55.5876 51.7803 56.0457 52.1003 56.6014C52.4182 56.0541 52.7442 55.5906 52.9669 55.0822C53.1913 54.5697 53.5344 54.4605 54.1115 54.5971C53.6762 55.3565 53.2328 56.0865 52.8373 56.8415C52.6732 57.1548 52.6116 57.5214 52.5034 57.9156Z" fill="#A4ABBD"/>
<path d="M38.6039 55.2273C38.2288 55.1796 38.1431 55.3295 38.1476 55.6359C38.1629 56.6696 38.1533 57.7037 38.1532 58.7376C38.1532 58.9177 38.1532 59.0977 38.1532 59.3067C37.8857 59.3067 37.6707 59.3067 37.3921 59.3067C37.3921 57.969 37.3921 56.6314 37.3921 55.2426C36.8389 55.2426 36.3468 55.2426 35.8174 55.2426C35.8174 54.9994 35.8174 54.8081 35.8174 54.5806C37.1207 54.5806 38.4258 54.5806 39.7651 54.5806C39.7651 54.782 39.7651 54.973 39.7651 55.2273C39.3874 55.2273 39.0218 55.2273 38.6039 55.2273Z" fill="#A4ABBD"/>
<path d="M28.2136 56.6666C28.2136 55.9491 28.2136 55.287 28.2136 54.5859C28.4748 54.5859 28.7021 54.5859 28.9887 54.5859C28.9887 55.9257 28.9887 57.2629 28.9887 58.6503C29.7415 58.6503 30.4375 58.6503 31.1679 58.6503C31.1679 58.8918 31.1679 59.0823 31.1679 59.3042C30.1989 59.3042 29.2439 59.3042 28.2137 59.3042C28.2137 58.4423 28.2137 57.5822 28.2136 56.6666Z" fill="#A4ABBD"/>
<path d="M105.26 55.6703C105.26 55.2857 105.26 54.9559 105.26 54.5913C105.526 54.5913 105.754 54.5913 106.012 54.5913C106.012 56.1637 106.012 57.7231 106.012 59.3078C105.768 59.3078 105.552 59.3078 105.26 59.3078C105.26 58.1125 105.26 56.9188 105.26 55.6703Z" fill="#A4ABBD"/>
<path d="M35.7781 19.8213C35.9169 19.8608 36.0765 19.9301 36.2383 20.0416C36.0932 20.0063 35.9461 19.9287 35.7781 19.8213Z" fill="#A4ABBD"/>
<path d="M79.1492 2.08748C79.0925 2.14235 79.0176 2.17123 78.9427 2.20011C78.9295 2.144 78.9162 2.08789 78.9304 2.0127C79.0156 2.01623 79.0733 2.03887 79.1492 2.08748Z" fill="#A4ABBD"/>
</svg>
