<svg width="106" height="59" viewBox="0 0 106 59" fill="none" xmlns="http://www.w3.org/2000/svg">
<path d="M66.6008 18.4279C65.9965 18.7823 65.3995 19.1502 64.7823 19.4804C64.6514 19.5505 64.4117 19.5449 64.2814 19.4706C61.6835 17.9893 59.0924 16.496 56.5091 14.9894C56.3856 14.9174 56.2846 14.7026 56.2792 14.5505C56.2555 13.8817 56.2708 13.2116 56.3131 12.4947C57.6042 11.2944 58.7537 10.052 59.8672 8.6368C59.9382 8.60906 60.1899 8.58555 60.3177 8.44763C60.7945 7.9329 61.228 7.37829 61.6839 6.84385C61.8338 6.66806 61.9959 6.50122 62.164 6.34257C62.3761 6.14247 62.6001 5.95494 62.819 5.76199C63.0049 5.58819 63.2462 5.46825 63.4132 5.28195C63.9233 4.7129 64.3655 4.07795 64.9114 3.54785C65.2754 3.19434 65.4638 2.56976 66.1381 2.59902C66.1851 2.60106 66.2377 2.53287 66.2834 2.49245C66.4868 2.31241 66.6887 2.13058 66.8911 1.9494C68.4757 2.85499 70.0604 3.76049 71.6447 4.66657C71.6988 4.69753 71.7452 4.74815 71.8025 4.76648C72.701 5.05349 72.8483 5.69091 72.8155 6.56248C72.7452 8.43286 72.7922 10.3076 72.753 12.2178C72.3777 12.0311 72.1721 12.0753 72.1512 12.3883C72.1095 13.0103 71.8629 13.4482 71.2035 13.5945C71.0904 13.6196 70.9988 13.7899 70.9196 13.908C70.7688 14.1329 70.6638 14.3955 70.4846 14.5923C70.299 14.7962 70.0154 14.9119 69.8337 15.118C69.5911 15.3932 69.4135 15.7156 69.0108 15.8136C68.9259 15.8342 68.8906 16.0377 68.822 16.1506C68.7359 16.2922 68.6377 16.547 68.5473 16.5459C67.9564 16.5385 67.8806 16.9887 67.7147 17.3801C67.6692 17.4877 67.569 17.6234 67.4695 17.6481C67.033 17.7565 66.7251 17.9839 66.6008 18.4279Z" fill="#3D4456"/>
<path d="M66.8751 1.92545C66.6887 2.1306 66.4869 2.31243 66.2834 2.49247C66.2378 2.53289 66.1851 2.60107 66.1382 2.59904C65.4638 2.56977 65.2754 3.19436 64.9114 3.54787C64.3656 4.07796 63.9234 4.71292 63.4132 5.28197C63.2462 5.46827 63.0049 5.58821 62.819 5.762C62.6002 5.95496 62.3762 6.14248 62.1641 6.34259C61.9959 6.50124 61.8339 6.66808 61.6839 6.84387C61.228 7.37831 60.7946 7.93292 60.3177 8.44765C60.1899 8.58556 59.9383 8.60908 59.8672 8.63681C58.7538 10.0521 57.6043 11.2945 56.3212 12.4515C56.2816 10.7084 56.2623 8.9612 56.2788 7.21438C56.2824 6.83774 56.1668 6.62297 55.84 6.45053C55.2753 6.1525 54.7187 5.83496 54.1827 5.48842C53.8793 5.29219 53.6516 5.30249 53.3393 5.48444C50.5481 7.11033 47.7479 8.72064 44.9468 10.3295C41.091 12.5441 37.2345 14.7577 33.3704 16.9578C33.0305 17.1512 32.9028 17.3595 32.9046 17.7579C32.9216 21.5181 32.9144 25.2784 32.9142 29.0387C32.9142 29.2072 32.9142 29.3756 32.9142 29.5704C32.2573 29.5704 31.6424 29.5704 30.9766 29.5704C30.9766 29.3831 30.9766 29.2158 30.9766 29.0485C30.9763 25.257 30.9725 21.4655 30.9825 17.674C30.9833 17.3568 30.9216 17.1274 30.6133 16.9653C30.6364 16.3087 31.262 16.1284 31.4889 15.6613C31.4395 15.5323 31.3867 15.394 31.3338 15.2558C31.8038 15.6259 32.2039 15.4495 32.6678 15.1758C34.9783 13.8123 37.3077 12.4806 39.6343 11.1443C44.219 8.51082 48.8083 5.88511 53.3879 3.24278C53.6784 3.07517 53.8825 3.08864 54.1501 3.25663C54.8677 3.70717 55.6309 4.09153 56.3163 4.58485C56.8089 4.93943 57.1966 4.83528 57.6461 4.57275C59.8352 3.29403 62.0324 2.02901 64.2177 0.743883C64.4727 0.593927 64.6539 0.606301 64.8917 0.755233C65.3805 1.06135 65.887 1.33941 66.3824 1.67071C66.3897 1.7597 66.4009 1.80699 66.412 1.85428C66.475 1.82994 66.538 1.8056 66.601 1.78126C66.687 1.82133 66.7731 1.8614 66.8751 1.92545Z" fill="#3D4456"/>
<path d="M86.6829 38.3982C86.6829 37.9619 86.6829 37.5721 86.6829 37.1075C86.5708 37.2127 86.4943 37.2693 86.4367 37.341C85.7418 38.2047 85.0511 39.0717 84.3563 39.9354C84.0262 40.3456 83.5562 40.3457 83.2264 39.9343C82.4945 39.0213 81.7667 38.1052 80.9392 37.0675C80.9392 38.9294 80.9392 40.655 80.9392 42.4028C80.1977 42.4028 79.5334 42.4028 78.8401 42.4028C78.8401 38.975 78.8401 35.5664 78.8401 32.1568C79.2588 32.0369 79.5415 32.1259 79.8149 32.485C81.0345 34.0872 82.2878 35.6639 83.53 37.2491C83.6059 37.346 83.6906 37.4361 83.8045 37.5679C84.5394 36.6321 85.2584 35.7181 85.9758 34.8028C86.5729 34.041 87.184 33.2894 87.7569 32.5099C88.0117 32.1633 88.2854 32.009 88.7285 32.161C88.7285 35.5595 88.7285 38.9678 88.7285 42.4011C88.057 42.4011 87.4061 42.4011 86.6829 42.4011C86.6829 41.0835 86.6829 39.7641 86.6829 38.3982Z" fill="#3D4456"/>
<path d="M31.3151 15.2302C31.3867 15.394 31.4396 15.5322 31.4889 15.6613C31.262 16.1284 30.6364 16.3086 30.5927 16.9373C30.5642 16.9604 30.5218 16.9541 30.5031 16.9054C30.3501 16.7983 30.2158 16.7399 30.0815 16.6815C28.3066 15.6705 26.5305 14.6613 24.7571 13.6477C23.863 13.1366 22.9682 12.6262 22.0848 12.0971C21.7759 11.9121 21.5644 11.8753 21.2308 12.127C19.9766 13.0732 18.2801 12.9747 17.0351 11.9455C15.8955 11.0035 15.5194 9.32588 16.1497 7.99608C16.8283 6.56426 18.3255 5.7762 19.8458 6.05062C21.6608 6.37822 22.8863 8.04917 22.6211 9.8778C22.5722 10.2148 22.7441 10.3106 22.9696 10.4393C25.7467 12.0251 28.5211 13.6155 31.3151 15.2302Z" fill="#3D4456"/>
<path d="M73.5084 40.1192C73.405 39.9791 73.3219 39.8659 73.2388 39.7527C72.4882 38.7306 72.4783 38.7266 71.0987 38.9021C71.0987 40.0543 71.0987 41.2148 71.0987 42.4004C70.3953 42.4004 69.7455 42.4004 69.0554 42.4004C69.0554 39.0567 69.0554 35.7128 69.0554 32.3456C69.0955 32.3332 69.1523 32.3 69.2091 32.3001C70.553 32.303 71.8985 32.2706 73.2406 32.3245C75.1822 32.4026 76.5505 33.9217 76.443 35.8048C76.3834 36.8488 75.9321 37.5497 74.6965 38.4807C75.6214 39.7644 76.5475 41.0497 77.535 42.4203C76.7361 42.4203 76.0147 42.431 75.2944 42.4081C75.1927 42.4048 75.0794 42.2497 75.0001 42.1436C74.5051 41.4811 74.0182 40.8125 73.5084 40.1192ZM73.4565 36.8996C74.1538 36.5418 74.4125 36.0351 74.2942 35.2588C74.2017 34.652 73.7561 34.2102 73.0349 34.1443C72.4072 34.087 71.77 34.1324 71.1256 34.1324C71.1256 35.0992 71.1256 36.037 71.1256 37.0464C71.9025 37.0039 72.6431 36.9633 73.4565 36.8996Z" fill="#3D4456"/>
<path d="M49.4269 32.2945C49.6086 32.3033 49.7443 32.312 49.9272 32.3237C49.9272 33.6062 49.9272 34.8619 49.9272 36.1401C51.4378 36.1401 52.8989 36.1401 54.4087 36.1401C54.4087 34.868 54.4087 33.6127 54.4087 32.3267C55.1178 32.3267 55.7785 32.3267 56.4664 32.3267C56.4664 35.6888 56.4664 39.0329 56.4664 42.4015C55.7924 42.4015 55.1413 42.4015 54.427 42.4015C54.427 40.9655 54.427 39.5262 54.427 38.0652C52.904 38.0652 51.4439 38.0652 49.933 38.0652C49.933 39.5169 49.933 40.9435 49.933 42.398C49.2204 42.398 48.5584 42.398 47.8713 42.398C47.8713 39.0347 47.8713 35.6898 47.8713 32.2945C48.3897 32.2945 48.8853 32.2945 49.4269 32.2945Z" fill="#3D4456"/>
<path d="M16.6334 38.0489C17.4264 36.2478 18.2073 34.4802 18.9765 32.7075C19.076 32.4782 19.1923 32.3738 19.4587 32.3752C19.732 32.3767 19.8706 32.4595 19.9821 32.716C21.3801 35.9317 22.7906 39.142 24.1963 42.3543C24.2383 42.4502 24.2628 42.5538 24.3119 42.7042C23.6198 42.7042 22.9676 42.7168 22.3169 42.6919C22.2078 42.6878 22.0344 42.537 22.0103 42.4277C21.8088 41.5135 21.2528 41.2731 20.3579 41.3678C19.4922 41.4594 18.609 41.3977 17.7339 41.3819C17.4765 41.3772 17.3106 41.4395 17.2572 41.7008C17.0784 42.5752 16.5415 42.865 15.6835 42.7145C15.3535 42.6566 15.0049 42.705 14.5913 42.705C15.2835 41.1255 15.9505 39.6033 16.6334 38.0489ZM19.3718 39.6882C19.835 39.6882 20.2983 39.6882 20.828 39.6882C20.3713 38.5317 19.9389 37.4368 19.4683 36.2452C18.9975 37.4405 18.5644 38.5399 18.1122 39.6882C18.5621 39.6882 18.9206 39.6882 19.3718 39.6882Z" fill="#3D4456"/>
<path d="M64.7644 35.9199C65.7152 38.0859 66.6492 40.2204 67.614 42.4253C66.875 42.4253 66.2233 42.4412 65.5738 42.4106C65.4581 42.4051 65.2802 42.2226 65.2524 42.0954C65.0644 41.2369 64.5389 41.0178 63.706 41.0923C62.8228 41.1713 61.9268 41.1198 61.0367 41.1043C60.7658 41.0996 60.5724 41.1582 60.5179 41.4401C60.3504 42.3061 59.8149 42.5685 58.9831 42.4357C58.6379 42.3806 58.2766 42.4265 57.8613 42.4265C58.3671 41.2736 58.8469 40.1787 59.3276 39.0841C60.2855 36.9025 61.2452 34.7216 62.2 32.5387C62.309 32.2895 62.3949 32.0956 62.7503 32.0921C63.1169 32.0885 63.188 32.3062 63.2929 32.5474C63.7772 33.6614 64.2626 34.7749 64.7644 35.9199ZM62.7091 39.4128C63.1516 39.4128 63.5941 39.4128 64.1017 39.4128C63.6372 38.2445 63.2055 37.1586 62.7342 35.973C62.2622 37.1742 61.8377 38.2546 61.3826 39.4127C61.8482 39.4127 62.2322 39.4127 62.7091 39.4128Z" fill="#3D4456"/>
<path d="M92.4302 37.2096C93.1433 35.5942 93.8464 34.013 94.5309 32.424C94.634 32.1846 94.7553 32.0939 95.0149 32.1019C95.2565 32.1093 95.402 32.1519 95.5121 32.4053C96.9028 35.6081 98.3086 38.8043 99.7091 42.0029C99.7578 42.1141 99.7908 42.2321 99.8583 42.4244C99.1472 42.4244 98.485 42.4374 97.8245 42.4105C97.7234 42.4064 97.5695 42.2313 97.5424 42.112C97.3443 41.2404 96.8156 41.0035 95.9536 41.0905C95.0715 41.1795 94.1731 41.1206 93.2823 41.1039C93.0198 41.099 92.8508 41.1788 92.8019 41.4291C92.6274 42.3226 92.0687 42.5732 91.2235 42.4355C90.8928 42.3816 90.5458 42.4267 90.1409 42.4267C90.9151 40.6605 91.6646 38.9509 92.4302 37.2096ZM93.8923 38.8132C93.8246 38.9952 93.7568 39.1771 93.6772 39.3907C94.6004 39.3907 95.4499 39.3907 96.3688 39.3907C95.9206 38.2587 95.4897 37.1706 95.0172 35.9773C94.6153 36.9871 94.2658 37.8654 93.8923 38.8132Z" fill="#3D4456"/>
<path d="M38.7188 32.6019C38.7811 32.4699 38.8452 32.3071 38.9047 32.3088C40.5395 32.3556 42.1928 32.2871 43.8025 32.519C45.279 32.7317 46.1826 34.0868 46.1723 35.5774C46.1622 37.0627 45.2281 38.3421 43.7746 38.6441C42.8989 38.8261 41.9783 38.7928 41.0779 38.8563C41.0025 38.8616 40.9272 38.8676 40.8011 38.8771C40.8011 40.054 40.8011 41.2147 40.8011 42.3998C40.0866 42.3998 39.4245 42.3998 38.7185 42.3998C38.7185 39.1315 38.7185 35.8896 38.7188 32.6019ZM41.791 37.0241C42.1345 37.0167 42.4799 37.0297 42.8211 36.9976C43.5427 36.9296 44.0211 36.3999 44.0677 35.65C44.1117 34.9416 43.6989 34.2988 43.0131 34.1984C42.2973 34.0936 41.5636 34.1114 40.8277 34.0751C40.8277 35.1065 40.8277 36.0486 40.8277 37.0242C41.1399 37.0242 41.4191 37.0242 41.791 37.0241Z" fill="#3D4456"/>
<path d="M66.6318 18.4213C66.7251 17.9839 67.033 17.7565 67.4695 17.6481C67.5691 17.6234 67.6692 17.4877 67.7148 17.3801C67.8806 16.9887 67.9565 16.5386 68.5473 16.5459C68.6377 16.5471 68.736 16.2922 68.822 16.1506C68.8906 16.0377 68.926 15.8343 69.0109 15.8136C69.4136 15.7156 69.5912 15.3933 69.8337 15.1181C70.0154 14.9119 70.2991 14.7962 70.4846 14.5924C70.6638 14.3955 70.7689 14.1329 70.9197 13.908C70.9989 13.7899 71.0905 13.6196 71.2036 13.5945C71.863 13.4482 72.1096 13.0103 72.1512 12.3884C72.1722 12.0754 72.3777 12.0311 72.7467 12.2612C72.7841 12.626 72.834 12.9906 72.7848 13.3415C72.7121 13.8609 72.941 14.1149 73.3786 14.3459C74.3303 14.8484 75.2575 15.3984 76.1779 15.9567C76.3312 16.0497 76.4929 16.2821 76.4935 16.4507C76.5102 20.6319 76.5058 24.8131 76.5038 28.9944C76.5038 29.0548 76.4875 29.1152 76.474 29.2094C75.8527 29.2094 75.2401 29.2094 74.5767 29.2094C74.5767 29.014 74.5767 28.831 74.5767 28.6479C74.5765 24.9971 74.5711 21.3463 74.5844 17.6955C74.5856 17.3542 74.4874 17.1632 74.1858 17.0011C73.4301 16.595 72.6873 16.1633 71.954 15.718C71.7207 15.5763 71.5528 15.5883 71.3244 15.7218C69.7753 16.6275 68.2177 17.5188 66.6318 18.4213Z" fill="#3D4456"/>
<path d="M29.5459 41.1136C29.3263 41.6173 29.1026 42.0812 28.9172 42.5599C28.8168 42.819 28.6733 42.8972 28.3998 42.9021C28.1246 42.9071 28.0256 42.7838 27.9288 42.5627C26.6295 39.5955 25.3225 36.6315 24.018 33.6666C23.8684 33.3267 23.722 32.9854 23.543 32.5729C24.3108 32.5729 25.0211 32.5548 25.7287 32.5907C25.8458 32.5967 25.9914 32.8213 26.0552 32.9736C26.7654 34.6682 27.4615 36.3686 28.1629 38.0669C28.2328 38.2362 28.3121 38.4016 28.4186 38.6394C28.5057 38.4652 28.5709 38.3533 28.6197 38.2346C29.3423 36.4777 30.068 34.722 30.7783 32.9601C30.8925 32.677 31.0283 32.5449 31.3571 32.5618C31.9632 32.593 32.5719 32.5707 33.2883 32.5707C32.025 35.4525 30.7914 38.2663 29.5459 41.1136Z" fill="#3D4456"/>
<path d="M7.49806 37.554C7.49805 35.8859 7.49805 34.2647 7.49805 32.6071C8.18456 32.6071 8.84616 32.6071 9.55311 32.6071C9.55311 35.324 9.55311 38.047 9.55311 40.8145C11.0422 40.8145 12.4878 40.8145 13.9708 40.8145C13.9708 41.4547 13.9708 42.0512 13.9708 42.6764C11.8363 42.6764 9.70152 42.6764 7.49808 42.6764C7.49808 40.9876 7.49808 39.2942 7.49806 37.554Z" fill="#3D4456"/>
<path d="M65.762 47.8513C66.2819 47.1648 66.7839 46.5056 67.2859 45.8463C67.3265 45.8678 67.3671 45.8893 67.4078 45.9108C67.4078 47.2541 67.4078 48.5974 67.4078 49.9763C67.2343 49.9763 67.043 49.9763 66.8151 49.9763C66.8151 49.1997 66.8151 48.4244 66.8151 47.6491C66.782 47.6312 66.7489 47.6134 66.7158 47.5955C66.4314 47.967 66.1338 48.3293 65.8667 48.7127C65.6336 49.0473 65.4438 49.0778 65.1988 48.7243C64.9327 48.3405 64.6359 47.978 64.2798 47.5108C64.2798 48.3941 64.2798 49.1724 64.2798 49.9807C64.0323 49.9807 63.8404 49.9807 63.6238 49.9807C63.6238 48.6214 63.6238 47.2734 63.6238 45.9253C63.6664 45.8957 63.7089 45.8661 63.7515 45.8365C64.3772 46.5611 64.9045 47.3699 65.5207 48.1308C65.6032 48.0377 65.6737 47.9581 65.762 47.8513Z" fill="#3D4456"/>
<path d="M17.593 46.7444C16.8257 46.3564 16.1047 46.4703 15.6547 47.0269C15.2261 47.557 15.2385 48.4564 15.6815 48.9814C16.1053 49.4837 16.9295 49.6481 17.5222 49.3297C17.8312 49.1637 18.1224 48.9642 17.9695 48.4758C17.6037 48.4758 17.2214 48.4758 16.8124 48.4758C16.8124 48.2576 16.8124 48.0929 16.8124 47.8958C17.411 47.8958 18.0115 47.8958 18.6111 47.8958C18.8198 48.8672 18.6493 49.3356 17.9318 49.7713C17.1344 50.2557 16.0893 50.1908 15.3932 49.587C14.7323 49.0137 14.491 48.2834 14.7248 47.4369C14.9589 46.5893 15.5501 46.0871 16.4049 45.932C17.2221 45.7837 17.904 46.0495 18.4615 46.7303C18.3021 46.869 18.167 46.9866 18.0176 47.1165C17.8735 46.9874 17.7485 46.8754 17.593 46.7444Z" fill="#3D4456"/>
<path d="M34.763 49.7793C33.8404 49.1028 33.5316 48.2128 33.8703 47.2716C34.172 46.4336 35.0419 45.861 35.957 45.8982C36.8944 45.9363 37.707 46.5703 37.93 47.4824C38.1381 48.3331 37.8963 49.0668 37.2054 49.6087C36.4552 50.1971 35.6361 50.2352 34.763 49.7793ZM35.5573 46.54C35.4541 46.5735 35.3459 46.5963 35.2487 46.6422C34.6297 46.9339 34.3029 47.633 34.4584 48.3208C34.6189 49.03 35.1382 49.4585 35.8486 49.4679C36.5666 49.4773 37.0892 49.0745 37.2746 48.3687C37.5524 47.3113 36.8076 46.4753 35.5573 46.54Z" fill="#3D4456"/>
<path d="M38.7747 46.1153C39.5086 46.0894 40.2873 45.9477 40.9513 46.1613C41.9092 46.4693 41.859 47.6681 40.8906 48.3778C41.2645 48.8965 41.6396 49.4169 42.0323 49.9618C41.5513 50.0977 41.2286 50.0003 40.9909 49.5808C40.8156 49.2715 40.5928 48.9819 40.3515 48.72C40.2326 48.5909 40.0322 48.5084 39.8543 48.4679C39.5274 48.3936 39.4148 48.5658 39.4345 48.8867C39.4563 49.2416 39.4395 49.5989 39.4395 49.9837C39.2104 49.9837 39.0167 49.9837 38.7683 49.9837C38.7683 48.7031 38.7683 47.4307 38.7747 46.1153ZM39.486 47.8341C39.7658 47.8431 40.0459 47.8636 40.3255 47.8583C40.7254 47.8507 40.9345 47.5995 40.9509 47.2349C40.9674 46.8666 40.7643 46.5998 40.3774 46.5604C40.0739 46.5295 39.7647 46.5542 39.4347 46.5542C39.4347 46.9917 39.4347 47.3785 39.486 47.8341Z" fill="#3D4456"/>
<path d="M10.5023 49.45C10.6287 49.6282 10.737 49.7781 10.8505 49.9352C10.2432 50.0877 10.2175 50.0793 9.87876 49.6226C9.7021 49.3846 9.50195 49.1597 9.35561 48.9042C9.11791 48.4893 8.79155 48.3564 8.28512 48.5125C8.28512 48.9814 8.28512 49.4698 8.28512 49.9846C8.04784 49.9846 7.86706 49.9846 7.64844 49.9846C7.64844 48.6749 7.64844 47.3596 7.64844 46.0057C8.25925 46.0057 8.88317 45.9493 9.49127 46.0231C10.0037 46.0852 10.3576 46.441 10.4517 46.9813C10.5591 47.5979 10.2907 48.0368 9.7145 48.3649C9.97911 48.7282 10.2317 49.0749 10.5023 49.45ZM9.18559 46.5497C8.88428 46.5497 8.58296 46.5497 8.28808 46.5497C8.28808 47.0214 8.28808 47.4188 8.28808 47.8663C8.55427 47.8663 8.79758 47.8656 9.04088 47.8665C9.39945 47.8679 9.69434 47.7632 9.76613 47.3667C9.83999 46.9589 9.68772 46.6709 9.18559 46.5497Z" fill="#3D4456"/>
<path d="M61.4343 48.8814C61.2106 48.4387 60.8661 48.3963 60.4075 48.5093C60.4075 48.9807 60.4075 49.469 60.4075 49.9839C60.1681 49.9839 59.9882 49.9839 59.7722 49.9839C59.7722 48.6724 59.7722 47.3575 59.7722 46.0096C60.3829 46.0096 61.006 45.9542 61.6138 46.027C62.1057 46.0859 62.4586 46.433 62.5543 46.9479C62.671 47.5758 62.4106 48.0393 61.8276 48.359C62.2102 48.895 62.5831 49.4172 62.9707 49.9602C62.5174 50.0825 62.2015 50.0195 61.9779 49.6267C61.8325 49.3714 61.6307 49.1481 61.4343 48.8814ZM60.4791 46.5601C60.4402 46.9787 60.4014 47.3973 60.3584 47.8602C60.7267 47.8602 61.0051 47.8723 61.282 47.8573C61.6716 47.8363 61.89 47.6062 61.9 47.2282C61.91 46.8493 61.6941 46.6073 61.316 46.5592C61.0698 46.5279 60.8167 46.5498 60.4791 46.5601Z" fill="#3D4456"/>
<path d="M83.6409 47.5854C83.4238 47.8855 83.2199 48.1501 82.994 48.4431C83.3208 48.8972 83.6905 49.4109 84.0803 49.9525C83.6093 50.1032 83.298 50.0028 83.0706 49.6032C82.9329 49.3613 82.7202 49.1619 82.583 48.9199C82.3488 48.5069 82.0252 48.3638 81.514 48.5177C81.514 48.9846 81.514 49.4731 81.514 49.986C81.2747 49.986 81.0944 49.986 80.8804 49.986C80.8804 48.6705 80.8804 47.3562 80.8804 46.009C81.4933 46.009 82.119 45.9412 82.723 46.0266C83.439 46.1278 83.7361 46.6914 83.6409 47.5854ZM81.5022 47.4263C81.5119 47.5611 81.5217 47.6958 81.5361 47.8928C82.0191 47.772 82.5726 48.0917 82.8898 47.5611C82.9983 47.3797 82.9935 47.0094 82.8758 46.8378C82.5416 46.3501 82.0085 46.5951 81.5021 46.5485C81.5021 46.8439 81.5021 47.0898 81.5022 47.4263Z" fill="#3D4456"/>
<path d="M52.815 47.577C53.2166 47.577 53.5719 47.577 53.9676 47.577C53.9676 47.0344 53.9676 46.5416 53.9676 46.0122C54.1994 46.0122 54.3915 46.0122 54.6167 46.0122C54.6167 47.3242 54.6167 48.6401 54.6167 49.9838C54.4133 49.9838 54.2194 49.9838 53.9757 49.9838C53.9757 49.383 53.9757 48.797 53.9757 48.1826C53.2939 48.1826 52.6612 48.1826 51.9794 48.1826C51.9794 48.771 51.9794 49.3546 51.9794 49.9745C51.7406 49.9745 51.5498 49.9745 51.3313 49.9745C51.3313 48.6582 51.3313 47.3423 51.3313 46.0005C51.5278 46.0005 51.7088 46.0005 51.9407 46.0005C51.9407 46.5042 51.9407 47.0105 51.9407 47.577C52.2492 47.577 52.509 47.577 52.815 47.577Z" fill="#3D4456"/>
<path d="M22.1836 45.997C22.389 45.9799 22.5569 45.9799 22.7349 45.9799C22.7349 46.9204 22.7984 47.826 22.7169 48.7185C22.6364 49.6 21.9354 50.1117 21.0504 50.0893C20.1958 50.0677 19.5224 49.5256 19.4587 48.6745C19.3928 47.7945 19.444 46.9058 19.444 45.9974C19.6539 45.9974 19.8354 45.9974 20.0816 45.9974C20.0816 46.6923 20.0764 47.3885 20.0846 48.0846C20.0873 48.3165 20.0956 48.5552 20.152 48.7781C20.2759 49.2671 20.6316 49.4919 21.1766 49.4659C21.6685 49.4426 22.0265 49.1685 22.0602 48.672C22.1118 47.911 22.0916 47.1452 22.106 46.3815C22.1083 46.2589 22.1321 46.1366 22.1836 45.997Z" fill="#3D4456"/>
<path d="M78.8892 50.011C78.3601 50.011 77.8778 50.011 77.3655 50.011C77.3655 48.6636 77.3655 47.3476 77.3655 46.0031C78.2321 46.0031 79.0838 46.0031 79.9896 46.0031C79.9977 46.1539 80.0063 46.3154 80.0182 46.5394C79.3488 46.5394 78.7033 46.5394 78.0337 46.5394C78.0337 46.9045 78.0337 47.2098 78.0337 47.5699C78.5159 47.5699 78.9912 47.5699 79.4967 47.5699C79.5082 47.7707 79.5167 47.9193 79.5287 48.1279C79.0254 48.1279 78.5516 48.1279 78.0435 48.1279C78.0435 48.581 78.0435 48.9768 78.0435 49.4264C78.7078 49.4264 79.3713 49.4264 80.0633 49.4264C80.0633 49.6396 80.0633 49.7997 80.0633 50.011C79.6771 50.011 79.3065 50.011 78.8892 50.011Z" fill="#3D4456"/>
<path d="M11.8454 50.0113C11.6969 49.9207 11.5025 49.8315 11.501 49.7392C11.4807 48.5087 11.4874 47.2778 11.4874 46.0108C12.3828 46.0108 13.2458 46.0108 14.1355 46.0108C14.1355 46.1758 14.1355 46.3375 14.1355 46.5436C13.488 46.5436 12.8536 46.5436 12.188 46.5436C12.188 46.8906 12.188 47.195 12.188 47.5548C12.6512 47.5548 13.1258 47.5548 13.6361 47.5548C13.6361 47.7685 13.6361 47.9283 13.6361 48.1436C13.1555 48.1436 12.6795 48.1436 12.1839 48.1436C12.1839 48.5953 12.1839 48.9919 12.1839 49.4254C12.8635 49.4254 13.5156 49.4254 14.2185 49.4254C14.2277 49.621 14.2353 49.7825 14.246 50.0114C13.4404 50.0114 12.6648 50.0114 11.8454 50.0113Z" fill="#3D4456"/>
<path d="M93.0397 46.8355C92.4919 46.4289 91.935 46.4009 91.385 46.7082C90.8381 47.0138 90.6425 47.5233 90.6879 48.1346C90.7311 48.7174 91.0144 49.1462 91.5566 49.3591C92.1025 49.5734 92.6315 49.5166 93.0832 49.1054C93.1741 49.0227 93.2382 48.9105 93.3343 48.7866C93.5304 48.9217 93.6757 49.0218 93.8116 49.1154C93.5502 49.8724 92.3456 50.2142 91.6793 50.0481C90.7002 49.804 90.0129 49.033 89.9758 48.0734C89.9396 47.1335 90.5725 46.2529 91.4746 45.9884C92.4066 45.7152 93.3342 46.0406 93.8263 46.8456C93.6868 46.9488 93.5436 47.0548 93.3187 47.2212C93.2282 47.0908 93.1478 46.9749 93.0397 46.8355Z" fill="#3D4456"/>
<path d="M57.4867 49.3473C57.2399 49.3473 57.0351 49.3662 56.8351 49.3432C56.4522 49.2992 56.2064 49.389 56.0525 49.7982C55.9948 49.9518 55.6481 49.9972 55.4332 50.0919C55.3937 50.0458 55.3543 49.9996 55.3149 49.9534C55.9057 48.5929 56.4965 47.2325 57.0873 45.8721C57.1494 45.8656 57.2114 45.8591 57.2734 45.8526C57.8666 47.2124 58.4597 48.5722 59.0668 49.9639C58.6317 50.0621 58.3149 50.0712 58.1949 49.5923C58.0993 49.2104 57.7685 49.3879 57.4867 49.3473ZM57.53 47.9728C57.4257 47.7187 57.3214 47.4647 57.1815 47.1239C56.9409 47.7166 56.7361 48.2213 56.5172 48.7606C56.9853 48.7606 57.3785 48.7606 57.8299 48.7606C57.7305 48.4921 57.6465 48.2651 57.53 47.9728Z" fill="#3D4456"/>
<path d="M27.6681 47.3771C27.861 46.9297 28.0366 46.5132 28.229 46.1045C28.268 46.0215 28.3702 45.968 28.4433 45.9009C28.5018 45.9665 28.5821 46.0226 28.6157 46.0992C29.1784 47.3807 29.7353 48.6649 30.3015 49.9669C29.8671 50.0738 29.543 50.0649 29.4123 49.5681C29.3868 49.4713 29.1932 49.3694 29.0685 49.3573C28.7589 49.327 28.4427 49.3677 28.1323 49.3422C27.7264 49.3088 27.4281 49.356 27.2709 49.824C27.2232 49.966 26.8501 49.999 26.6261 50.0819C26.5993 50.0427 26.5725 50.0034 26.5457 49.9642C26.916 49.1131 27.2864 48.262 27.6681 47.3771ZM28.1306 48.7867C28.4344 48.7867 28.7383 48.7867 29.0968 48.7867C28.8683 48.2223 28.6677 47.7267 28.4214 47.1183C28.1714 47.7335 27.9662 48.2383 27.7499 48.7705C27.8936 48.7783 27.9711 48.7825 28.1306 48.7867Z" fill="#3D4456"/>
<path d="M71.5082 49.1332C71.6231 49.4263 71.7231 49.6866 71.8331 49.9731C71.4311 50.0663 71.13 50.0538 70.9898 49.5901C70.957 49.4814 70.7498 49.3738 70.6124 49.3584C70.3038 49.3239 69.9878 49.3618 69.6764 49.3438C69.2957 49.3218 69.0022 49.3516 68.8486 49.8055C68.7982 49.9541 68.4194 49.9919 68.1907 50.0803C68.1667 50.0372 68.1427 49.9941 68.1187 49.9509C68.7118 48.5907 69.3049 47.2306 69.8981 45.8704C69.9604 45.8632 70.0227 45.8561 70.085 45.849C70.5545 46.9328 71.0239 48.0167 71.5082 49.1332ZM70.2707 47.8006C70.1928 47.6094 70.1148 47.4181 69.9915 47.1158C69.7401 47.7356 69.5361 48.2384 69.3233 48.763C69.8008 48.763 70.2004 48.763 70.65 48.763C70.5231 48.4393 70.4108 48.1528 70.2707 47.8006Z" fill="#3D4456"/>
<path d="M98.8687 48.0516C98.0968 47.58 97.8834 47.0416 98.2175 46.472C98.6179 45.7891 99.7567 45.6967 100.4 46.2987C100.49 46.3825 100.559 46.488 100.66 46.6107C100.516 46.7273 100.386 46.8323 100.327 46.88C99.938 46.7409 99.6208 46.5754 99.2874 46.5314C99.1343 46.5112 98.8314 46.7099 98.809 46.8445C98.7806 47.0157 98.9198 47.2884 99.0726 47.3999C99.3578 47.6079 99.7119 47.719 100.025 47.8926C100.574 48.1971 100.806 48.6159 100.717 49.0981C100.623 49.6098 100.245 49.9368 99.6448 50.0664C99.0426 50.1966 98.0409 49.7994 97.8906 49.1724C98.0105 49.0819 98.142 48.9827 98.2918 48.8696C98.6213 49.2624 98.9836 49.5803 99.5037 49.4497C99.6952 49.4017 99.9491 49.22 99.988 49.0553C100.027 48.8914 99.8798 48.612 99.728 48.4912C99.4901 48.3019 99.1796 48.2033 98.8687 48.0516Z" fill="#3D4456"/>
<path d="M75.7912 48.7538C75.6065 48.5903 75.4429 48.4463 75.2582 48.3384C75.0574 48.221 74.8321 48.1461 74.6259 48.0369C73.9564 47.6824 73.7156 47.1998 73.9219 46.6463C74.1233 46.106 74.7948 45.7819 75.4378 45.9276C75.844 46.0196 76.1974 46.1987 76.4133 46.6285C76.2845 46.7354 76.1578 46.8406 76.1248 46.868C75.7072 46.7283 75.3875 46.5698 75.0543 46.5332C74.9045 46.5168 74.6295 46.7186 74.5911 46.8675C74.5526 47.0169 74.6914 47.2879 74.835 47.3919C75.1084 47.5898 75.4449 47.6985 75.7474 47.8588C76.3813 48.1948 76.6117 48.6149 76.4781 49.1631C76.3444 49.7121 75.8791 50.0692 75.2206 50.0832C74.5493 50.0973 74.0162 49.8247 73.635 49.2172C73.7704 49.1042 73.8977 48.9978 74.0644 48.8585C74.4388 49.3356 74.9046 49.6533 75.5058 49.3896C75.6626 49.3208 75.707 48.9963 75.7912 48.7538Z" fill="#3D4456"/>
<path d="M95.8698 50.0111C95.4509 50.0111 95.0788 50.0111 94.6743 50.0111C94.6743 48.6646 94.6743 47.3503 94.6743 46.0054C95.5283 46.0054 96.3775 46.0054 97.2578 46.0054C97.2578 46.1733 97.2578 46.3341 97.2578 46.5427C96.6162 46.5427 95.9839 46.5427 95.3238 46.5427C95.3238 46.8941 95.3238 47.1995 95.3238 47.5586C95.7882 47.5586 96.2633 47.5586 96.7709 47.5586C96.7709 47.7706 96.7709 47.9302 96.7709 48.1294C96.3029 48.1294 95.84 48.1294 95.3362 48.1294C95.3362 48.573 95.3362 48.9797 95.3362 49.424C95.9942 49.424 96.6444 49.424 97.3445 49.424C97.3548 49.6196 97.3634 49.7816 97.3756 50.0111C96.8728 50.0111 96.3946 50.0111 95.8698 50.0111Z" fill="#3D4456"/>
<path d="M50.4263 46.6155C50.7905 47.6241 50.3163 48.3624 49.2793 48.4454C49.0031 48.4674 48.7236 48.4487 48.3832 48.4487C48.3832 48.7494 48.3832 48.9942 48.3832 49.239C48.3832 49.4713 48.3832 49.7035 48.3832 49.9737C48.1649 49.9737 47.9748 49.9737 47.7561 49.9737C47.7561 48.6563 47.7561 47.3407 47.7561 45.9959C48.3649 45.9959 48.964 45.9305 49.538 46.022C49.8497 46.0717 50.1186 46.3884 50.4263 46.6155ZM49.7838 47.5896C49.7662 47.3161 49.8506 46.9623 49.7107 46.7852C49.3743 46.3593 48.8619 46.5938 48.4192 46.5482C48.4192 47.0179 48.4192 47.4269 48.4192 47.9654C48.8992 47.85 49.3182 47.7493 49.7838 47.5896Z" fill="#3D4456"/>
<path d="M86.0195 48.6111C86.3561 47.9124 86.6902 47.2251 86.9434 46.5092C87.1119 46.0328 87.3668 45.8653 87.8971 46.0266C87.302 47.3916 86.708 48.7544 86.1139 50.1171C86.0528 50.1176 85.9918 50.1181 85.9307 50.1185C85.339 48.7642 84.7473 47.4098 84.1533 46.0503C84.8086 45.8886 84.8278 45.8991 85.0688 46.4671C85.372 47.1821 85.6779 47.896 86.0195 48.6111Z" fill="#3D4456"/>
<path d="M44.1694 48.8146C44.1694 49.228 44.1694 49.5976 44.1694 49.989C43.9385 49.989 43.7579 49.989 43.465 49.989C43.9142 48.3801 42.7745 47.2922 42.1494 46.022C42.6109 45.8925 42.913 45.975 43.1087 46.4288C43.2913 46.8524 43.5611 47.2385 43.8303 47.7069C44.0977 47.2456 44.372 46.855 44.5593 46.4264C44.7481 45.9945 45.0368 45.9024 45.5222 46.0175C45.1561 46.6576 44.783 47.2729 44.4503 47.9093C44.3122 48.1733 44.2604 48.4823 44.1694 48.8146Z" fill="#3D4456"/>
<path d="M32.4763 46.5486C32.1607 46.5084 32.0886 46.6348 32.0924 46.893C32.1053 47.7643 32.0972 48.6359 32.0971 49.5073C32.0971 49.6591 32.0971 49.8108 32.0971 49.9869C31.8721 49.9869 31.6912 49.9869 31.4568 49.9869C31.4568 48.8595 31.4568 47.7321 31.4568 46.5615C30.9914 46.5615 30.5774 46.5615 30.1321 46.5615C30.1321 46.3566 30.1321 46.1953 30.1321 46.0035C31.2286 46.0035 32.3265 46.0035 33.4532 46.0035C33.4532 46.1733 33.4532 46.3343 33.4532 46.5486C33.1354 46.5486 32.8278 46.5486 32.4763 46.5486Z" fill="#3D4456"/>
<path d="M23.7351 47.762C23.7351 47.1572 23.7351 46.5992 23.7351 46.0082C23.9548 46.0082 24.146 46.0082 24.3872 46.0082C24.3872 47.1374 24.3872 48.2646 24.3872 49.4339C25.0205 49.4339 25.606 49.4339 26.2204 49.4339C26.2204 49.6374 26.2204 49.798 26.2204 49.9851C25.4052 49.9851 24.6018 49.9851 23.7351 49.9851C23.7351 49.2586 23.7351 48.5337 23.7351 47.762Z" fill="#3D4456"/>
<path d="M88.552 46.9222C88.552 46.598 88.552 46.3201 88.552 46.0128C88.7759 46.0128 88.9676 46.0128 89.1843 46.0128C89.1843 47.3381 89.1843 48.6525 89.1843 49.9881C88.9794 49.9881 88.7979 49.9881 88.552 49.9881C88.552 48.9807 88.552 47.9746 88.552 46.9222Z" fill="#3D4456"/>
<path d="M30.0991 16.7066C30.2159 16.7399 30.3502 16.7983 30.4863 16.8923C30.3643 16.8625 30.2404 16.7971 30.0991 16.7066Z" fill="#3D4456"/>
<path d="M66.5857 1.75935C66.538 1.8056 66.475 1.82994 66.4119 1.85428C66.4008 1.80699 66.3897 1.7597 66.4016 1.69632C66.4733 1.6993 66.5218 1.71838 66.5857 1.75935Z" fill="#3D4456"/>
</svg>
