<svg width="32" height="32" viewBox="0 0 32 32" fill="none" xmlns="http://www.w3.org/2000/svg">
  <rect width="32" height="32" rx="6" fill="#3D4456"/>
  <g transform="translate(3, 4) scale(0.245)">
    <path d="M66.6008 18.4279C65.9965 18.7823 65.3995 19.1502 64.7823 19.4804C64.6514 19.5505 64.4117 19.5449 64.2814 19.4706C61.6835 17.9893 59.0924 16.496 56.5091 14.9894C56.3856 14.9174 56.2846 14.7026 56.2792 14.5505C56.2555 13.8817 56.2708 13.2116 56.3131 12.4947C57.6042 11.2944 58.7537 10.052 59.8672 8.6368C59.9382 8.60906 60.1899 8.58555 60.3177 8.44763C60.7945 7.9329 61.228 7.37829 61.6839 6.84385C61.8338 6.66806 61.9959 6.50122 62.164 6.34257C62.3761 6.14247 62.6001 5.95494 62.819 5.76199C63.0049 5.58819 63.2462 5.46825 63.4132 5.28195C63.9233 4.7129 64.3655 4.07795 64.9114 3.54785C65.2754 3.19434 65.4638 2.56976 66.1381 2.59902C66.1851 2.60106 66.2377 2.53287 66.2834 2.49245C66.4868 2.31241 66.6887 2.13058 66.8911 1.9494C68.4757 2.85499 70.0604 3.76049 71.6447 4.66657C71.6988 4.69753 71.7452 4.74815 71.8025 4.76648C72.701 5.05349 72.8483 5.69091 72.8155 6.56248C72.7452 8.43286 72.7922 10.3076 72.753 12.2178C72.3777 12.0311 72.1721 12.0753 72.1512 12.3883C72.1095 13.0103 71.8629 13.4482 71.2035 13.5945C71.0904 13.6196 70.9988 13.7899 70.9196 13.908C70.7688 14.1329 70.6638 14.3955 70.4846 14.5923C70.299 14.7962 70.0154 14.9119 69.8337 15.118C69.5911 15.3932 69.4135 15.7156 69.0108 15.8136C68.9259 15.8342 68.8906 16.0377 68.822 16.1506C68.7359 16.2922 68.6377 16.547 68.5473 16.5459C67.9564 16.5385 67.8806 16.9887 67.7147 17.3801C67.6692 17.4877 67.569 17.6234 67.4695 17.6481C67.033 17.7565 66.7251 17.9839 66.6008 18.4279Z" fill="white"/>
    <path d="M66.8751 1.92545C66.6887 2.1306 66.4869 2.31243 66.2834 2.49247C66.2378 2.53289 66.1851 2.60107 66.1382 2.59904C65.4638 2.56977 65.2754 3.19436 64.9114 3.54787C64.3656 4.07796 63.9234 4.71292 63.4132 5.28197C63.2462 5.46827 63.0049 5.58821 62.819 5.762C62.6002 5.95496 62.3762 6.14248 62.1641 6.34259C61.9959 6.50124 61.8339 6.66808 61.6839 6.84387C61.228 7.37831 60.7946 7.93292 60.3177 8.44765C60.1899 8.58556 59.9383 8.60908 59.8672 8.63681C58.7538 10.0521 57.6043 11.2945 56.3212 12.4515C56.2816 10.7084 56.2623 8.9612 56.2788 7.21438C56.2824 6.83774 56.1668 6.62297 55.84 6.45053C55.2753 6.1525 54.7187 5.83496 54.1827 5.48842C53.8793 5.29219 53.6516 5.30249 53.3393 5.48444C50.5481 7.11033 47.7479 8.72064 44.9468 10.3295C41.091 12.5441 37.2345 14.7577 33.3704 16.9578C33.0305 17.1512 32.9028 17.3595 32.9046 17.7579C32.9216 21.5181 32.9144 25.2784 32.9142 29.0387C32.9142 29.2072 32.9142 29.3756 32.9142 29.5704C32.2573 29.5704 31.6424 29.5704 30.9766 29.5704C30.9766 29.3831 30.9766 29.2158 30.9766 29.0485C30.9763 25.257 30.9725 21.4655 30.9825 17.674C30.9833 17.3568 30.9216 17.1274 30.6133 16.9653C30.6364 16.3087 31.262 16.1284 31.4889 15.6613C31.4395 15.5323 31.3867 15.394 31.3338 15.2558C31.8038 15.6259 32.2039 15.4495 32.6678 15.1758C34.9783 13.8123 37.3077 12.4806 39.6343 11.1443C44.219 8.51082 48.8083 5.88511 53.3879 3.24278C53.6784 3.07517 53.8825 3.08864 54.1501 3.25663C54.8677 3.70717 55.6309 4.09153 56.3163 4.58485C56.8089 4.93943 57.1966 4.83528 57.6461 4.57275C59.8352 3.29403 62.0324 2.02901 64.2177 0.743883C64.4727 0.593927 64.6539 0.606301 64.8917 0.755233C65.3805 1.06135 65.887 1.33941 66.3824 1.67071C66.3897 1.7597 66.4009 1.80699 66.412 1.85428C66.475 1.82994 66.538 1.8056 66.601 1.78126C66.687 1.82133 66.7731 1.8614 66.8751 1.92545Z" fill="white"/>
    <path d="M66.6318 18.4213C66.7251 17.9839 67.033 17.7565 67.4695 17.6481C67.5691 17.6234 67.6692 17.4877 67.7148 17.3801C67.8806 16.9887 67.9565 16.5386 68.5473 16.5459C68.6377 16.5471 68.736 16.2922 68.822 16.1506C68.8906 16.0377 68.926 15.8343 69.0109 15.8136C69.4136 15.7156 69.5912 15.3933 69.8337 15.1181C70.0154 14.9119 70.2991 14.7962 70.4846 14.5924C70.6638 14.3955 70.7689 14.1329 70.9197 13.908C70.9989 13.7899 71.0905 13.6196 71.2036 13.5945C71.863 13.4482 72.1096 13.0103 72.1512 12.3884C72.1722 12.0754 72.3777 12.0311 72.7467 12.2612C72.7841 12.626 72.834 12.9906 72.7848 13.3415C72.7121 13.8609 72.941 14.1149 73.3786 14.3459C74.3303 14.8484 75.2575 15.3984 76.1779 15.9567C76.3312 16.0497 76.4929 16.2821 76.4935 16.4507C76.5102 20.6319 76.5058 24.8131 76.5038 28.9944C76.5038 29.0548 76.4875 29.1152 76.474 29.2094C75.8527 29.2094 75.2401 29.2094 74.5767 29.2094C74.5767 29.014 74.5767 28.831 74.5767 28.6479C74.5765 24.9971 74.5711 21.3463 74.5844 17.6955C74.5856 17.3542 74.4874 17.1632 74.1858 17.0011C73.4301 16.595 72.6873 16.1633 71.954 15.718C71.7207 15.5763 71.5528 15.5883 71.3244 15.7218C69.7753 16.6275 68.2177 17.5188 66.6318 18.4213Z" fill="white"/>
    <path d="M31.3151 15.2302C31.3867 15.394 31.4396 15.5322 31.4889 15.6613C31.262 16.1284 30.6364 16.3086 30.5927 16.9373C30.5642 16.9604 30.5218 16.9541 30.5031 16.9054C30.3501 16.7983 30.2158 16.7399 30.0815 16.6815C28.3066 15.6705 26.5305 14.6613 24.7571 13.6477C23.863 13.1366 22.9682 12.6262 22.0848 12.0971C21.7759 11.9121 21.5644 11.8753 21.2308 12.127C19.9766 13.0732 18.2801 12.9747 17.0351 11.9455C15.8955 11.0035 15.5194 9.32588 16.1497 7.99608C16.8283 6.56426 18.3255 5.7762 19.8458 6.05062C21.6608 6.37822 22.8863 8.04917 22.6211 9.8778C22.5722 10.2148 22.7441 10.3106 22.9696 10.4393C25.7467 12.0251 28.5211 13.6155 31.3151 15.2302Z" fill="white"/>
  </g>
</svg>
